<svg width="240" height="20" viewBox="0 0 240 20" fill="none" xmlns="http://www.w3.org/2000/svg">
<path d="M5.48868 0.473877C6.57926 0.473877 9.18057 0.581148 10.9595 2.29748C11.9696 3.26291 12.7384 4.85409 12.7384 6.97269C12.7384 10.3249 11.2992 11.9697 10.6377 12.6133C9.02861 14.2045 6.86532 14.7766 3.86174 14.7766H0L1.76103 0.473877H5.49762H5.48868ZM3.08403 12.3809H4.03159C5.91776 12.3809 7.48212 12.0144 8.55483 10.8344C9.45769 9.85111 9.85995 8.3672 9.85995 7.03526C9.85995 6.23967 9.69011 4.95242 8.6174 3.98699C7.4553 2.95898 5.84625 2.86959 5.09535 2.86959H4.23719L3.07509 12.372L3.08403 12.3809Z" fill="#B71B26"/>
<path d="M23.2777 12.2915C22.8039 13.2569 22.053 14.0257 21.3021 14.4548C20.3814 14.9733 19.3534 15.0805 18.5131 15.0805C17.2705 15.0805 16.0459 14.8481 15.0626 13.7933C14.5441 13.2569 13.9452 12.3094 13.9452 10.7897C13.9452 9.18064 14.5262 7.57158 15.5542 6.56145C16.7342 5.38148 18.1287 5.18481 19.264 5.18481C20.3993 5.18481 21.5346 5.39936 22.4374 6.25752C23.4475 7.22295 23.6353 8.49232 23.6353 9.6276C23.6353 10.012 23.6353 10.2891 23.5906 10.5752H16.6359C16.5286 11.4333 16.7878 12.0591 17.1722 12.4435C17.646 12.9351 18.227 13.0245 18.6919 13.0245C19.0137 13.0245 19.6126 13.0066 20.1043 12.7206C20.4887 12.4882 20.8105 12.0948 21.0071 11.7551L23.2598 12.2915H23.2777ZM21.3468 8.90353C21.3289 8.36717 21.0876 7.8487 20.7658 7.55371C20.3993 7.21402 19.845 7.03523 19.3087 7.03523C18.6025 7.03523 18.084 7.31235 17.7175 7.63416C17.3957 7.93809 17.0918 8.38505 16.9487 8.90353H21.3468Z" fill="#B71B26"/>
<path d="M30.0179 7.75041C29.8212 7.55374 29.6335 7.41072 29.3564 7.27663C29.0793 7.15148 28.8379 7.0889 28.4803 7.0889C28.3731 7.0889 27.8546 7.10678 27.6043 7.39284C27.5149 7.50011 27.4076 7.66995 27.4076 7.94707C27.4076 8.14373 27.4523 8.28676 27.6043 8.42085C27.7563 8.546 27.944 8.63539 28.3552 8.76054L29.1508 9.01978C29.6692 9.18962 30.2414 9.51143 30.59 9.86006C31.1263 10.4143 31.2336 11.1294 31.2336 11.6211C31.2336 12.6938 30.8045 13.4626 30.2682 13.9989C29.3027 14.9644 28.0781 15.0895 27.2199 15.0895C26.2723 15.0895 25.5661 14.8928 25.0298 14.6425C24.556 14.4101 24.0018 13.9542 23.6174 13.552L25.1818 11.9608C25.3963 12.2647 25.7002 12.5418 26.0399 12.7385C26.3617 12.9083 26.7461 13.0424 27.1126 13.0424C27.4523 13.0424 27.8814 12.953 28.1228 12.7653C28.3373 12.5955 28.4893 12.2915 28.4893 11.9518C28.4893 11.782 28.4446 11.5675 28.2569 11.3708C28.0602 11.2009 27.7384 11.0669 27.3361 10.9238L26.6925 10.6646C26.3081 10.5126 25.8522 10.2981 25.4678 9.9137C25.0387 9.48461 24.8421 9.03765 24.8421 8.32252C24.8421 7.40178 25.2265 6.62407 25.7628 6.11453C26.2992 5.59606 27.1573 5.21167 28.3999 5.21167C28.9988 5.21167 29.6871 5.30106 30.2235 5.5156C30.6347 5.66757 31.0816 5.94469 31.3856 6.15923L30.0358 7.76828L30.0179 7.75041Z" fill="#B71B26"/>
<path d="M37.0262 5.48868L35.8909 14.7765H33.2718L34.407 5.48868H37.0262ZM35.1401 0.536353C35.5691 0.0893922 36.0429 0 36.3826 0C36.7938 0 37.1335 0.151967 37.3659 0.384386C37.6252 0.643623 37.7771 1.01013 37.7771 1.39452C37.7771 1.71633 37.6699 2.19011 37.2586 2.59237C36.8743 2.97676 36.4184 3.12873 36.0161 3.12873C35.6138 3.12873 35.2831 2.97676 35.0328 2.74434C34.7735 2.4851 34.6216 2.19011 34.6216 1.76103C34.6216 1.33194 34.7735 0.902861 35.1401 0.536353Z" fill="#B71B26"/>
<path d="M46.7253 5.48875H49.3444L48.2539 14.3475C48.1287 15.4381 47.9499 17.2259 46.8415 18.3612C46.1532 19.0674 44.8927 19.711 42.8546 19.711C41.7372 19.711 40.3695 19.5144 39.3772 18.4685C38.7783 17.8427 38.3492 16.8773 38.2419 15.8761H40.9863C41.031 16.2605 41.2187 16.7343 41.5226 17.0114C41.7551 17.2438 42.211 17.4852 42.935 17.4852C43.7485 17.4852 44.3474 17.2259 44.7408 16.8594C45.3218 16.3052 45.4916 15.4649 45.581 14.8392L45.7509 13.534C45.6436 13.686 45.2324 14.2402 44.5888 14.6246C44.0524 14.9464 43.4714 15.0716 42.8546 15.0716C41.7193 15.0716 40.6645 14.7945 39.8063 13.9363C39.118 13.248 38.5816 12.1574 38.5816 10.6109C38.5816 8.84989 39.27 7.3928 40.2533 6.47206C40.8969 5.84632 41.9696 5.18481 43.5608 5.18481C44.4011 5.18481 45.0447 5.35466 45.5095 5.63178C45.8313 5.82844 46.2604 6.15025 46.5822 6.6866L46.7342 5.48875H46.7253ZM42.1752 8.17051C41.5495 8.72474 41.2723 9.60973 41.2723 10.4053C41.2723 11.2635 41.6567 11.8177 41.9607 12.1216C42.4523 12.6133 43.0512 12.7653 43.5876 12.7653C44.6424 12.7653 45.2592 12.3809 45.581 12.0769C46.1353 11.5406 46.4839 10.6646 46.4839 9.82427C46.4839 8.98398 46.0995 8.41187 45.7777 8.10794C45.3933 7.76825 44.7944 7.50901 44.0435 7.50901C43.1228 7.50901 42.5238 7.8487 42.1752 8.17051Z" fill="#B71B26"/>
<path d="M51.615 5.48875H54.2342L54.0822 6.6866C54.3415 6.2754 54.708 5.91783 55.2175 5.6139C55.7539 5.30996 56.2902 5.18481 57.0232 5.18481C58.2658 5.18481 59.0435 5.5692 59.5083 6.04298C60.1073 6.66872 60.2414 7.4375 60.2414 8.08112C60.2414 8.59959 60.152 9.02868 60.0715 9.6723L59.4458 14.7766H56.8266L57.3629 10.4679C57.3808 10.2712 57.4881 9.33261 57.4881 8.98398C57.4881 8.34036 57.2557 7.97385 57.059 7.804C56.8623 7.60734 56.5048 7.41962 55.9237 7.41962C55.1728 7.41962 54.7259 7.72355 54.4666 7.97385C53.975 8.49232 53.7604 9.36837 53.671 10.0299L53.09 14.7677H50.4708L51.6061 5.47981L51.615 5.48875Z" fill="#B71B26"/>
<path d="M71.6567 6.00725H77.7086L78.3969 0.473877H81.1859L79.4249 14.7856H76.6359L77.4046 8.4119H71.3528L70.584 14.7856H67.795L69.556 0.473877H72.345L71.6567 6.00725Z" fill="#B71B26"/>
<path d="M91.7163 6.5254C92.3153 7.15114 92.9142 8.15233 92.9142 9.61836C92.9142 10.7983 92.5477 12.2822 91.2604 13.5248C90.0358 14.6869 88.6412 15.0892 86.9875 15.0892C85.6555 15.0892 84.413 14.812 83.4029 13.8019C82.7145 13.1404 82.1782 12.1035 82.1782 10.6464C82.1782 9.18928 82.8397 7.68749 83.7873 6.76675C84.5381 6.03374 85.8701 5.20239 88.0334 5.20239C89.857 5.20239 90.9923 5.82814 91.6985 6.53434L91.7163 6.5254ZM89.2938 11.9515C89.8302 11.4151 90.1699 10.6017 90.1699 9.86866C90.1699 9.28761 89.9374 8.58141 89.4815 8.15233C89.0524 7.74113 88.4088 7.50871 87.7831 7.50871C87.0501 7.50871 86.326 7.78582 85.8075 8.2596C85.1639 8.85853 84.8868 9.74351 84.8868 10.4676C84.8868 11.0218 85.1192 11.6923 85.5304 12.0945C85.9595 12.5236 86.6478 12.756 87.2467 12.756C87.9529 12.756 88.7306 12.4968 89.2849 11.9426L89.2938 11.9515Z" fill="#B71B26"/>
<path d="M97.4821 5.48877L96.9279 10.1282C96.8385 10.8791 96.8206 11.1115 96.8206 11.2456C96.8206 11.8446 97.0173 12.1932 97.205 12.3809C97.4821 12.6848 97.9737 12.8547 98.5101 12.8547C99.1716 12.8547 99.6454 12.6223 99.9493 12.3362C100.441 11.8624 100.548 11.2188 100.656 10.3875L101.254 5.49771H103.874L103.248 10.6288C103.033 12.3451 102.622 13.6771 101.228 14.4727C100.387 14.9465 99.3414 15.0984 98.4565 15.0984C97.2944 15.0984 96.1412 14.8392 95.3903 14.3028C94.8987 13.9363 94.1478 13.1676 94.1478 11.7462C94.1478 11.3797 94.1925 10.9506 94.2729 10.2891L94.854 5.50665H97.4732L97.4821 5.48877Z" fill="#B71B26"/>
<path d="M110.551 7.75041C110.355 7.55374 110.167 7.41072 109.89 7.27663C109.613 7.15148 109.371 7.0889 109.014 7.0889C108.906 7.0889 108.388 7.10678 108.138 7.39284C108.048 7.50011 107.941 7.66995 107.941 7.94707C107.941 8.14373 107.986 8.28676 108.138 8.42085C108.29 8.546 108.477 8.63539 108.889 8.76054L109.684 9.01978C110.203 9.18962 110.775 9.51143 111.123 9.86006C111.66 10.4143 111.767 11.1294 111.767 11.6211C111.767 12.6938 111.338 13.4626 110.802 13.9989C109.836 14.9644 108.611 15.0895 107.753 15.0895C106.806 15.0895 106.1 14.8928 105.563 14.6425C105.089 14.4101 104.535 13.9542 104.151 13.552L105.715 11.9608C105.93 12.2647 106.234 12.5418 106.573 12.7385C106.895 12.9083 107.28 13.0424 107.646 13.0424C107.986 13.0424 108.415 12.953 108.656 12.7653C108.871 12.5955 109.023 12.2915 109.023 11.9518C109.023 11.782 108.978 11.5675 108.79 11.3708C108.594 11.2009 108.272 11.0669 107.869 10.9238L107.226 10.6646C106.841 10.5126 106.386 10.2981 106.001 9.9137C105.572 9.48461 105.375 9.03765 105.375 8.32252C105.375 7.40178 105.76 6.62407 106.296 6.11453C106.833 5.59606 107.691 5.21167 108.933 5.21167C109.532 5.21167 110.221 5.30106 110.757 5.5156C111.168 5.66757 111.615 5.94469 111.919 6.15923L110.569 7.76828L110.551 7.75041Z" fill="#B71B26"/>
<path d="M122.396 12.2915C121.922 13.2569 121.171 14.0257 120.42 14.4548C119.499 14.9733 118.471 15.0805 117.631 15.0805C116.389 15.0805 115.164 14.8481 114.181 13.7933C113.662 13.2569 113.063 12.3094 113.063 10.7897C113.063 9.18064 113.644 7.57158 114.672 6.56145C115.852 5.38148 117.247 5.18481 118.382 5.18481C119.517 5.18481 120.653 5.39936 121.555 6.25752C122.566 7.22295 122.753 8.49232 122.753 9.6276C122.753 10.012 122.753 10.2891 122.709 10.5752H115.754C115.647 11.4333 115.906 12.0591 116.29 12.4435C116.764 12.9351 117.345 13.0245 117.81 13.0245C118.132 13.0245 118.731 13.0066 119.222 12.7206C119.607 12.4882 119.928 12.0948 120.125 11.7551L122.378 12.2915H122.396ZM120.465 8.90353C120.447 8.36717 120.206 7.8487 119.884 7.55371C119.517 7.21402 118.963 7.03523 118.427 7.03523C117.72 7.03523 117.202 7.31235 116.836 7.63416C116.514 7.93809 116.21 8.38505 116.067 8.90353H120.465Z" fill="#B71B26"/>
<path d="M135.948 0.473877C137.038 0.473877 138.459 0.625844 139.505 1.71643C139.997 2.2349 140.516 3.09307 140.516 4.46077C140.516 5.82847 140.024 6.88329 139.336 7.55373C138.692 8.17948 137.637 8.64432 136.698 8.79629L140.346 14.7856H137.002L133.892 9.03764H133.552L132.846 14.7856H130.057L131.818 0.473877H135.957H135.948ZM133.784 7.06208H134.768C135.518 7.06208 136.466 6.84754 137.002 6.31118C137.262 6.05195 137.628 5.54241 137.628 4.68425C137.628 4.27304 137.539 3.71881 137.047 3.28973C136.707 2.9858 136.126 2.75338 135.206 2.75338H134.33L133.793 7.07102L133.784 7.06208Z" fill="#B71B26"/>
<path d="M150.822 12.2915C150.349 13.2569 149.598 14.0257 148.847 14.4548C147.926 14.9733 146.898 15.0805 146.058 15.0805C144.815 15.0805 143.591 14.8481 142.607 13.7933C142.089 13.2569 141.49 12.3094 141.49 10.7897C141.49 9.18064 142.071 7.57158 143.099 6.56145C144.279 5.38148 145.673 5.18481 146.809 5.18481C147.944 5.18481 149.079 5.39936 149.982 6.25752C150.992 7.22295 151.18 8.49232 151.18 9.6276C151.18 10.012 151.18 10.2891 151.135 10.5752H144.181C144.073 11.4333 144.333 12.0591 144.717 12.4435C145.191 12.9351 145.772 13.0245 146.237 13.0245C146.558 13.0245 147.157 13.0066 147.649 12.7206C148.033 12.4882 148.355 12.0948 148.552 11.7551L150.805 12.2915H150.822ZM148.892 8.90353C148.874 8.36717 148.632 7.8487 148.31 7.55371C147.944 7.21402 147.39 7.03523 146.853 7.03523C146.147 7.03523 145.629 7.31235 145.262 7.63416C144.94 7.93809 144.636 8.38505 144.493 8.90353H148.892Z" fill="#B71B26"/>
<path d="M153.156 5.48875H155.775L155.623 6.6866C155.882 6.2754 156.249 5.91783 156.758 5.6139C157.294 5.30996 157.831 5.18481 158.564 5.18481C159.806 5.18481 160.584 5.5692 161.049 6.04298C161.648 6.66872 161.782 7.4375 161.782 8.08112C161.782 8.59959 161.692 9.02868 161.612 9.6723L160.986 14.7766H158.367L158.903 10.4679C158.921 10.2712 159.029 9.33261 159.029 8.98398C159.029 8.34036 158.796 7.97385 158.6 7.804C158.403 7.60734 158.045 7.41962 157.464 7.41962C156.713 7.41962 156.266 7.72355 156.007 7.97385C155.515 8.49232 155.301 9.36837 155.212 10.0299L154.631 14.7677H152.011L153.147 5.47981L153.156 5.48875Z" fill="#B71B26"/>
<path d="M172.509 6.5254C173.108 7.15114 173.707 8.15233 173.707 9.61836C173.707 10.7983 173.34 12.2822 172.053 13.5248C170.828 14.6869 169.434 15.0892 167.78 15.0892C166.448 15.0892 165.206 14.812 164.195 13.8019C163.507 13.1404 162.971 12.1035 162.971 10.6464C162.971 9.18928 163.632 7.68749 164.58 6.76675C165.331 6.03374 166.663 5.20239 168.826 5.20239C170.65 5.20239 171.785 5.82814 172.491 6.53434L172.509 6.5254ZM170.086 11.9515C170.623 11.4151 170.962 10.6017 170.962 9.86866C170.962 9.28761 170.73 8.58141 170.274 8.15233C169.845 7.74113 169.201 7.50871 168.576 7.50871C167.843 7.50871 167.119 7.78582 166.6 8.2596C165.957 8.85853 165.679 9.74351 165.679 10.4676C165.679 11.0218 165.912 11.6923 166.323 12.0945C166.752 12.5236 167.44 12.756 168.039 12.756C168.746 12.756 169.523 12.4968 170.077 11.9426L170.086 11.9515Z" fill="#B71B26"/>
<path d="M176.818 5.48877L178.623 10.7271L181.716 5.48877H184.72L178.838 14.7766H177.595L173.993 5.48877H176.827H176.818Z" fill="#B71B26"/>
<path d="M192.524 5.4886H195.143L194.008 14.7764H191.389L191.541 13.5786C191.067 14.2043 190.53 14.5261 190.361 14.6334C189.806 14.9552 189.27 15.0804 188.626 15.0804C187.509 15.0804 186.463 14.7764 185.578 13.9004C184.675 12.9975 184.336 11.8623 184.336 10.6197C184.336 8.94807 184.89 7.57143 185.775 6.6507C186.526 5.88192 187.723 5.1936 189.44 5.1936C190.101 5.1936 190.682 5.31875 191.281 5.64056C191.8 5.91768 192.122 6.26631 192.372 6.69539L192.524 5.49754V5.4886ZM187.974 8.17036C187.375 8.72459 187.053 9.547 187.053 10.3158C187.053 11.1292 187.357 11.7729 187.759 12.1573C188.144 12.5238 188.707 12.7562 189.476 12.7562C189.994 12.7562 190.7 12.6489 191.317 12.0947C191.943 11.5404 192.238 10.6555 192.238 9.85987C192.238 9.19837 191.979 8.61732 191.594 8.20612C191.29 7.88431 190.736 7.49992 189.788 7.49992C189.127 7.49992 188.501 7.69658 187.965 8.16142L187.974 8.17036Z" fill="#B71B26"/>
<path d="M201.472 7.72341L200.614 14.7854H197.995L198.853 7.72341H197.825L198.102 5.48861H199.13L199.514 2.31519H202.134L201.749 5.48861H203.555L203.278 7.72341H201.472Z" fill="#B71B26"/>
<path d="M208.185 5.48868L207.05 14.7765H204.431L205.566 5.48868H208.185ZM206.299 0.536353C206.728 0.0893922 207.202 0 207.542 0C207.953 0 208.293 0.151967 208.525 0.384386C208.784 0.643623 208.936 1.01013 208.936 1.39452C208.936 1.71633 208.829 2.19011 208.418 2.59237C208.033 2.97676 207.577 3.12873 207.175 3.12873C206.773 3.12873 206.442 2.97676 206.192 2.74434C205.933 2.4851 205.781 2.19011 205.781 1.76103C205.781 1.33194 205.933 0.902861 206.299 0.536353Z" fill="#B71B26"/>
<path d="M218.957 6.5254C219.556 7.15114 220.155 8.15233 220.155 9.61836C220.155 10.7983 219.788 12.2822 218.501 13.5248C217.277 14.6869 215.882 15.0892 214.228 15.0892C212.896 15.0892 211.654 14.812 210.644 13.8019C209.955 13.1404 209.419 12.1035 209.419 10.6464C209.419 9.18928 210.08 7.68749 211.028 6.76675C211.779 6.03374 213.111 5.20239 215.274 5.20239C217.098 5.20239 218.233 5.82814 218.939 6.53434L218.957 6.5254ZM216.535 11.9515C217.071 11.4151 217.411 10.6017 217.411 9.86866C217.411 9.28761 217.178 8.58141 216.722 8.15233C216.293 7.74113 215.65 7.50871 215.024 7.50871C214.291 7.50871 213.567 7.78582 213.048 8.2596C212.405 8.85853 212.128 9.74351 212.128 10.4676C212.128 11.0218 212.36 11.6923 212.771 12.0945C213.2 12.5236 213.889 12.756 214.487 12.756C215.194 12.756 215.971 12.4968 216.526 11.9426L216.535 11.9515Z" fill="#B71B26"/>
<path d="M222.515 5.48875H225.134L224.982 6.6866C225.241 6.2754 225.608 5.91783 226.117 5.6139C226.654 5.30996 227.19 5.18481 227.923 5.18481C229.166 5.18481 229.943 5.5692 230.408 6.04298C231.007 6.66872 231.141 7.4375 231.141 8.08112C231.141 8.59959 231.052 9.02868 230.971 9.6723L230.346 14.7766H227.726L228.263 10.4679C228.281 10.2712 228.388 9.33261 228.388 8.98398C228.388 8.34036 228.156 7.97385 227.959 7.804C227.762 7.60734 227.405 7.41962 226.824 7.41962C226.073 7.41962 225.626 7.72355 225.367 7.97385C224.875 8.49232 224.66 9.36837 224.571 10.0299L223.99 14.7677H221.371L222.506 5.47981L222.515 5.48875Z" fill="#B71B26"/>
<path d="M238.632 7.75041C238.436 7.55374 238.248 7.41072 237.971 7.27663C237.694 7.15148 237.452 7.0889 237.095 7.0889C236.987 7.0889 236.469 7.10678 236.219 7.39284C236.129 7.50011 236.022 7.66995 236.022 7.94707C236.022 8.14373 236.067 8.28676 236.219 8.42085C236.371 8.546 236.558 8.63539 236.97 8.76054L237.765 9.01978C238.284 9.18962 238.856 9.51143 239.204 9.86006C239.741 10.4143 239.848 11.1294 239.848 11.6211C239.848 12.6938 239.419 13.4626 238.883 13.9989C237.917 14.9644 236.692 15.0895 235.834 15.0895C234.887 15.0895 234.181 14.8928 233.644 14.6425C233.17 14.4101 232.616 13.9542 232.232 13.552L233.796 11.9608C234.011 12.2647 234.315 12.5418 234.654 12.7385C234.976 12.9083 235.361 13.0424 235.727 13.0424C236.067 13.0424 236.496 12.953 236.737 12.7653C236.952 12.5955 237.104 12.2915 237.104 11.9518C237.104 11.782 237.059 11.5675 236.871 11.3708C236.675 11.2009 236.353 11.0669 235.951 10.9238L235.307 10.6646C234.923 10.5126 234.467 10.2981 234.082 9.9137C233.653 9.48461 233.456 9.03765 233.456 8.32252C233.456 7.40178 233.841 6.62407 234.377 6.11453C234.914 5.59606 235.772 5.21167 237.014 5.21167C237.613 5.21167 238.302 5.30106 238.838 5.5156C239.249 5.66757 239.696 5.94469 240 6.15923L238.65 7.76828L238.632 7.75041Z" fill="#B71B26"/>
</svg>
